<?xml version="1.0" encoding="utf-8"?>
<!DOCTYPE svg PUBLIC "-//W3C//DTD SVG 1.1//EN" "http://www.w3.org/Graphics/SVG/1.1/DTD/svg11.dtd">
<svg version="1.1" baseProfile="full" 
	xmlns="http://www.w3.org/2000/svg"
	xmlns:xlink="http://www.w3.org/1999/xlink"
	xmlns:ev="http://www.w3.org/2001/xml-events"
	width="19.5px" height="16px">
<path fill="rgb(255,255,255)" fill-rule="evenodd" d="M19.5 1.89498 C18.7826 2.21625 18.0115 2.4333 17.2023 2.53093 C18.0282 2.03113 18.6626 1.23966 18.9613 0.296596 C18.1882 0.759438 17.3321 1.09552 16.4208 1.27657 C15.691 0.4917 14.6513 0.00133825 13.5006 0.00133825 C11.2913 0.00133825 9.49993 1.80947 9.49993 4.03978 C9.49993 4.35628 9.5353 4.66452 9.60352 4.9601 C6.27863 4.79166 3.33073 3.18389 1.35758 0.740501 C1.01318 1.33697 0.815919 2.0307 0.815919 2.77083 C0.815919 4.17196 1.52214 5.40808 2.59565 6.13233 C1.93985 6.1113 1.32298 5.92966 0.783613 5.62716 C0.783256 5.64406 0.783256 5.66091 0.783256 5.67797 C0.783256 7.63469 2.1623 9.26687 3.99243 9.63798 C3.65674 9.73025 3.30331 9.77965 2.93844 9.77965 C2.68065 9.77965 2.43004 9.75428 2.18572 9.70718 C2.69484 11.3116 4.17229 12.4793 5.92293 12.5118 C4.55376 13.595 2.82874 14.2406 0.954351 14.2406 C0.631413 14.2406 0.312975 14.2215 2.09779e-005 14.1841 C1.77049 15.3301 3.8734 15.9987 6.13265 15.9987 C13.4913 15.9987 17.5154 9.84483 17.5154 4.50804 C17.5154 4.33294 17.5114 4.15882 17.5037 3.98555 C18.2854 3.41617 18.9637 2.7049 19.5 1.89498 Z"/>
</svg>