<?xml version="1.0" encoding="utf-8"?>
<!DOCTYPE svg PUBLIC "-//W3C//DTD SVG 1.1//EN" "http://www.w3.org/Graphics/SVG/1.1/DTD/svg11.dtd">
<svg version="1.1" baseProfile="full" 
	xmlns="http://www.w3.org/2000/svg"
	xmlns:xlink="http://www.w3.org/1999/xlink"
	xmlns:ev="http://www.w3.org/2001/xml-events"
	width="17px" height="17px">
<path fill="rgb(255,255,255)" fill-rule="evenodd" d="M14.875 17 C14.875 17 11.3568 17 11.3568 17 C11.3568 17 11.3568 10.6489 11.3568 10.6489 C11.3568 10.6489 13.8022 10.6657 13.8022 10.6657 C13.8022 10.6657 14 8.5318 14 8.5318 C14 8.5318 11.3568 8.5318 11.3568 8.5318 C11.3568 8.5318 11.3568 7.47329 11.3568 7.47329 C11.3568 6.88868 12.0615 6.40041 12.636 6.40041 C12.636 6.40041 13.8022 6.40041 13.8022 6.40041 C13.8022 6.40041 13.8022 3.9993 13.8022 3.9993 C13.8022 3.9993 11.2741 3.9993 11.2741 3.9993 C9.73861 3.9993 8.71367 5.38171 8.71367 6.94404 C8.71367 6.94404 8.71367 8.5318 8.71367 8.5318 C8.71367 8.5318 6.59914 8.5318 6.59914 8.5318 C6.59914 8.5318 6.49963 10.6657 6.49963 10.6657 C6.49963 10.6657 8.71367 10.6489 8.71367 10.6489 C8.71367 10.6489 8.71367 17 8.71367 17 C8.71367 17 2.12501 17 2.12501 17 C0.95139 17 1.07305e-005 16.0486 1.07305e-005 14.875 C1.07305e-005 14.875 1.07305e-005 2.12502 1.07305e-005 2.12502 C1.07305e-005 0.951396 0.95139 1.59766e-005 2.12501 1.59766e-005 C2.12501 1.59766e-005 14.875 1.59766e-005 14.875 1.59766e-005 C16.0486 1.59766e-005 17 0.951396 17 2.12502 C17 2.12502 17 14.875 17 14.875 C17 16.0486 16.0486 17 14.875 17 Z"/>
</svg>